<svg xmlns="http://www.w3.org/2000/svg" width="90" height="90" fill="none" viewBox="0 0 90 90">
  <path fill="#fff" d="M45 8.438a36.563 36.563 0 100 73.125 36.563 36.563 0 000-73.126zm-13.247 28.94a2.814 2.814 0 013.994 0l6.44 6.469V22.5a2.812 2.812 0 115.626 0v21.347l6.44-6.469a2.824 2.824 0 013.994 3.994l-11.25 11.25a3.348 3.348 0 01-.928.619 3.43 3.43 0 01-1.069.197 2.812 2.812 0 01-1.069-.226 2.39 2.39 0 01-.843-.534l-11.25-11.25a2.81 2.81 0 01-.085-4.05zm32.934 24.497a2.813 2.813 0 01-2.812 2.813h-33.75a2.812 2.812 0 01-2.813-2.813v-11.25a2.812 2.812 0 115.625 0v8.438h28.125v-8.438a2.812 2.812 0 115.626 0v11.25z"/>
</svg>
