<svg xmlns="http://www.w3.org/2000/svg" width="70" height="28" fill="none" viewBox="0 0 70 28">
  <rect width="70" height="28" fill="#BBA065" rx="5"/>
  <path fill="#fff" d="M18.32 17.117h4.977V19h-7.32V7.625h2.343v9.492zm5.828-2.422c0-.838.162-1.586.485-2.242a3.554 3.554 0 011.39-1.523c.61-.36 1.316-.54 2.118-.54 1.14 0 2.07.35 2.789 1.047.724.698 1.127 1.646 1.21 2.844l.016.578c0 1.297-.362 2.339-1.086 3.125-.724.782-1.695 1.172-2.914 1.172-1.218 0-2.192-.39-2.922-1.172-.724-.78-1.086-1.843-1.086-3.187v-.102zm2.258.164c0 .803.151 1.417.453 1.844.302.422.735.633 1.297.633.547 0 .974-.208 1.282-.625.307-.422.46-1.094.46-2.016 0-.786-.153-1.396-.46-1.828-.308-.432-.74-.648-1.297-.648-.552 0-.98.216-1.282.648-.302.427-.453 1.091-.453 1.992zm6.813-.148c0-1.297.307-2.341.922-3.133.62-.791 1.453-1.187 2.5-1.187.927 0 1.648.317 2.164.953l.093-.797h2.047v8.172c0 .74-.169 1.383-.508 1.93a3.211 3.211 0 01-1.414 1.25c-.609.286-1.323.43-2.14.43-.62 0-1.224-.126-1.813-.376-.588-.245-1.034-.562-1.336-.953l1-1.375c.563.63 1.245.945 2.047.945.6 0 1.065-.161 1.399-.484.333-.318.5-.77.5-1.36v-.453c-.521.589-1.206.883-2.055.883-1.016 0-1.839-.396-2.469-1.187-.625-.797-.937-1.852-.937-3.164v-.094zm2.258.164c0 .766.153 1.367.46 1.805.308.432.73.648 1.266.648.688 0 1.18-.258 1.477-.773V13c-.302-.516-.79-.773-1.461-.773-.542 0-.969.22-1.282.664-.307.442-.46 1.104-.46 1.984zM45.07 19h-2.265v-8.453h2.265V19zM42.672 8.36c0-.34.112-.618.336-.837.229-.218.539-.328.93-.328.385 0 .692.11.921.328.23.22.344.498.344.836 0 .344-.117.625-.351.844-.23.219-.534.328-.914.328s-.688-.11-.922-.328c-.23-.219-.344-.5-.344-.844zm6.344 2.187l.07.976c.604-.755 1.414-1.132 2.43-1.132.895 0 1.562.263 2 .789.437.526.661 1.312.672 2.36V19H51.93v-5.406c0-.48-.105-.826-.313-1.04-.208-.218-.554-.327-1.039-.327-.635 0-1.112.27-1.43.812V19h-2.257v-8.453h2.125z"/>
  <path fill="#000" d="M18.32 17.117h-.5v.5h.5v-.5zm4.977 0h.5v-.5h-.5v.5zm0 1.883v.5h.5V19h-.5zm-7.32 0h-.5v.5h.5V19zm0-11.375v-.5h-.5v.5h.5zm2.343 0h.5v-.5h-.5v.5zm0 9.992h4.977v-1H18.32v1zm4.477-.5V19h1v-1.883h-1zm.5 1.383h-7.32v1h7.32v-1zm-6.82.5V7.625h-1V19h1zm-.5-10.875h2.343v-1h-2.343v1zm1.843-.5v9.492h1V7.625h-1zm6.813 4.828l-.449-.22.449.22zm1.39-1.523l-.254-.431-.001.001.255.43zm4.907.508l-.349.358.002.002.347-.36zm1.21 2.843l.5-.013V14.247l-.5.034zm.016.578h.5v-.013l-.5.013zm-1.086 3.125l.367.34.001-.001-.368-.339zm-5.836 0l-.366.34v.002l.366-.342zm1.625-1.28l-.408.288.002.002.406-.29zm2.578.007l.403.297.002-.003-.404-.294zm-2.578-3.844l.409.289.001-.002-.41-.287zm-2.21 1.828c0-.773.148-1.443.432-2.021l-.897-.442c-.361.735-.536 1.56-.536 2.463h1zm.432-2.021a3.054 3.054 0 011.198-1.315l-.511-.859c-.691.41-1.22.993-1.584 1.732l.897.442zm1.196-1.314c.523-.308 1.139-.47 1.864-.47v-1c-.88 0-1.675.198-2.372.609l.508.861zm1.864-.47c1.03 0 1.828.312 2.44.906l.697-.717c-.825-.802-1.886-1.188-3.137-1.188v1zm2.442.907c.618.596.982 1.42 1.059 2.519l.997-.07c-.09-1.296-.533-2.369-1.362-3.168l-.694.72zm1.058 2.498l.015.578 1-.027-.016-.578-1 .027zm.015.564c0 1.2-.332 2.111-.954 2.787l.736.677c.826-.898 1.218-2.07 1.218-3.464h-1zm-.952 2.786c-.616.663-1.446 1.011-2.548 1.011v1c1.336 0 2.448-.433 3.281-1.332l-.733-.68zm-2.548 1.011c-1.101 0-1.935-.348-2.556-1.013l-.731.683c.837.897 1.951 1.33 3.287 1.33v-1zm-2.555-1.011c-.617-.667-.953-1.596-.953-2.848h-1c0 1.435.39 2.631 1.22 3.527l.733-.68zm-.953-2.848v-.102h-1v.102h1zm1.258.062c0 .854.16 1.587.545 2.133l.817-.578c-.219-.308-.362-.804-.362-1.555h-1zm.547 2.135c.405.566.995.842 1.703.842v-1c-.417 0-.69-.146-.89-.424l-.813.582zm1.703.842c.696 0 1.276-.276 1.684-.828l-.805-.594c-.207.28-.48.422-.879.422v1zm1.686-.83c.401-.552.556-1.355.556-2.31h-1c0 .887-.152 1.428-.365 1.72l.809.59zm.556-2.31c0-.843-.163-1.57-.553-2.118l-.815.579c.224.316.368.808.368 1.538h1zm-.553-2.118c-.406-.572-.995-.86-1.704-.86v1c.405 0 .68.146.889.439l.815-.58zm-1.704-.86c-.707 0-1.29.29-1.691.863l.82.573c.203-.292.473-.435.87-.435v-1zm-1.69.86c-.391.554-.545 1.344-.545 2.281h1c0-.864.149-1.402.362-1.703l-.817-.578zm7.69-1l-.394-.308-.001.002.395.306zm4.664-.234l-.389.315.747.92.138-1.177-.496-.058zm.093-.797v-.5h-.444l-.052.441.496.059zm2.047 0h.5v-.5h-.5v.5zm-.508 10.101l-.425-.263-.001.003.426.26zm-5.367 1.305l.196-.46-.004-.002-.192.462zM33.734 21l-.404-.294-.22.303.229.297.395-.306zm1-1.375l.373-.333-.412-.462-.365.5.404.295zm3.446.46l-.345-.361-.003.003.348.359zm.5-1.812h.5v-1.319l-.875.988.375.331zm-4.524-.304l-.393.308.002.003.391-.311zm1.782-1.29l-.41.288.002.002.407-.29zm2.742-.124l.433.25.067-.117v-.133h-.5zm0-3.555h.5v-.136l-.069-.117-.431.253zm-2.742-.11l-.409-.288-.002.003.41.286zm-2.22 1.82c0-1.218.289-2.144.818-2.825l-.79-.614c-.7.903-1.027 2.065-1.027 3.44h1zm.816-2.824c.52-.665 1.206-.995 2.107-.995v-1c-1.194 0-2.175.46-2.894 1.379l.787.616zm2.107-.995c.799 0 1.368.266 1.775.768l.777-.63c-.624-.77-1.497-1.138-2.552-1.138v1zm2.66.511l.094-.797-.993-.117-.094.797.993.117zm-.403-.355h2.047v-1h-2.047v1zm1.547-.5v8.172h1v-8.172h-1zm0 8.172c0 .66-.15 1.21-.433 1.666l.85.527c.395-.638.583-1.375.583-2.193h-1zm-.434 1.67c-.28.458-.675.81-1.2 1.057l.425.905a3.711 3.711 0 001.628-1.442l-.853-.52zm-1.2 1.057c-.53.25-1.169.382-1.928.382v1c.876 0 1.664-.153 2.353-.477l-.425-.905zm-1.928.382c-.55 0-1.089-.11-1.617-.335l-.391.92a5.094 5.094 0 002.008.415v-1zm-1.62-.337c-.532-.22-.898-.492-1.133-.797l-.791.612c.368.476.893.84 1.54 1.109l.383-.924zm-1.124-.197l1-1.375-.809-.588-1 1.375.809.588zm.222-1.336c.652.73 1.467 1.112 2.42 1.112v-1c-.651 0-1.2-.248-1.674-.778l-.746.666zm2.42 1.112c.69 0 1.295-.188 1.747-.625l-.696-.718c-.215.208-.542.343-1.05.343v1zm1.744-.622c.458-.437.655-1.036.655-1.721h-1c0 .491-.137.798-.345.997l.69.724zm.655-1.721v-.454h-1v.454h1zm-.875-.785c-.417.472-.961.714-1.68.714v1c.98 0 1.805-.346 2.43-1.051l-.75-.663zm-1.68.714c-.864 0-1.543-.327-2.078-.999l-.782.623c.725.912 1.693 1.376 2.86 1.376v-1zm-2.075-.996c-.538-.686-.831-1.621-.831-2.855h-1c0 1.39.332 2.564 1.044 3.472l.787-.617zm-.831-2.855v-.094h-1v.094h1zm1.258.07c0 .826.164 1.541.551 2.092l.819-.575c-.228-.324-.37-.812-.37-1.517h-1zm.553 2.094c.402.566.977.86 1.673.86v-1c-.377 0-.646-.14-.858-.439l-.815.58zm1.673.86c.833 0 1.508-.327 1.91-1.025l-.867-.499c-.192.334-.501.523-1.043.523v1zm1.977-1.274V13h-1v3.555h1zm-.069-3.808c-.404-.69-1.07-1.02-1.892-1.02v1c.52 0 .83.185 1.03.526l.862-.506zm-1.892-1.02c-.705 0-1.284.3-1.69.875l.817.577a.988.988 0 01.873-.452v-1zm-1.692.878c-.392.565-.55 1.347-.55 2.27h1c0-.837.148-1.378.371-1.7l-.821-.57zM45.07 19v.5h.5V19h-.5zm-2.265 0h-.5v.5h.5V19zm0-8.453v-.5h-.5v.5h.5zm2.265 0h.5v-.5h-.5v.5zm-2.062-3.024l-.345-.361-.005.004.35.357zm1.844 1.68l-.342-.365-.004.003.346.362zm-1.836 0l-.346.362.005.004.34-.366zM45.07 18.5h-2.265v1h2.265v-1zm-1.765.5v-8.453h-1V19h1zm-.5-7.953h2.265v-1h-2.265v1zm1.765-.5V19h1v-8.453h-1zm-1.398-2.188a.62.62 0 01.185-.478l-.699-.715a1.618 1.618 0 00-.486 1.193h1zm.181-.474c.116-.11.29-.19.584-.19v-1c-.487 0-.932.14-1.274.467l.69.723zm.584-.19c.287 0 .46.079.577.19l.69-.723c-.34-.326-.782-.467-1.267-.467v1zm.577.19a.607.607 0 01.19.474h1c0-.464-.164-.877-.5-1.197l-.69.723zm.19.474a.604.604 0 01-.194.479l.683.73c.343-.32.51-.737.51-1.209h-1zm-.198.482c-.118.113-.29.19-.569.19v1c.482 0 .92-.141 1.26-.466l-.69-.724zm-.569.19c-.278 0-.455-.077-.58-.193l-.682.73c.343.322.78.463 1.263.463v-1zm-.576-.19c-.121-.115-.19-.262-.19-.482h-1c0 .468.162.884.5 1.206l.69-.724zm5.655 1.706l.498-.036-.033-.464h-.465v.5zm.07.976l-.499.036.092 1.274.797-.997-.39-.313zm4.43-.343l.384-.32-.384.32zm.672 2.36h.5v-.006l-.5.005zm0 5.46v.5h.5V19h-.5zm-2.258 0h-.5v.5h.5V19zm-.313-6.445l-.362.345.004.004.358-.35zm-2.469.484l-.43-.253-.07.117v.136h.5zm0 5.961v.5h.5V19h-.5zm-2.257 0h-.5v.5h.5V19zm0-8.453v-.5h-.5v.5h.5zm1.626.036l.07.976.998-.071-.07-.977-.998.072zm.96 1.253c.503-.63 1.166-.945 2.039-.945v-1c-1.16 0-2.116.44-2.82 1.32l.78.625zm2.039-.945c.796 0 1.3.23 1.615.608l.769-.639c-.56-.673-1.39-.97-2.384-.97v1zm1.615.608c.334.402.547 1.055.556 2.045l1-.01c-.01-1.104-.246-2.023-.787-2.674l-.769.64zm.556 2.04V19h1v-5.46h-1zm.5 4.961H51.93v1h2.258v-1zm-1.757.5v-5.406h-1V19h1zm0-5.406c0-.534-.114-1.039-.455-1.388l-.716.698c.076.077.17.265.17.69h1zm-.45-1.384c-.347-.364-.86-.483-1.402-.483v1c.428 0 .607.099.677.172l.724-.69zm-1.402-.483c-.81 0-1.452.362-1.86 1.06l.862.505c.226-.386.538-.565.998-.565v-1zm-1.93 1.312V19h1v-5.96h-1zm.5 5.461h-2.257v1h2.257v-1zm-1.757.5v-8.453h-1V19h1zm-.5-7.953h2.125v-1H46.89v1z"/>
</svg>
